<svg width="138" height="35" viewBox="0 0 138 35" fill="none" xmlns="http://www.w3.org/2000/svg">
<path d="M30 31.5H17.7002V25.3613C17.7002 23.9582 17.7999 22.7685 18.3721 21.8398C18.8646 21.0405 19.5376 20.3675 20.3369 19.875C21.2656 19.3027 22.4551 19.2031 23.8584 19.2031H30V31.5Z" fill="#F2F1ED"/>
<path d="M20 3.5C25.5228 3.5 30 7.97715 30 13.5V15.7998H23.8584C22.543 15.7998 21.4156 15.7127 20.5146 15.2305L20.3369 15.1279C19.6041 14.6768 18.9769 14.0737 18.498 13.3594C18.0789 12.734 17.7818 12.036 17.6211 11.3027L17.5605 10.9863L17.5039 10.6367L17.4766 10.5557L17.4326 10.4424C17.3365 10.2195 17.1896 10.0224 17.0039 9.86621L16.9082 9.79102L16.8057 9.72363C16.5628 9.57733 16.284 9.5 16 9.5C15.6738 9.5001 15.3562 9.60287 15.0928 9.79102C14.8278 9.98057 14.6294 10.2486 14.5244 10.5557L14.4971 10.6348L14.4834 10.7178L14.4395 10.9863C14.2367 12.2265 13.6497 13.3718 12.7607 14.2607C11.8718 15.1497 10.7265 15.7367 9.48633 15.9395L9.21777 15.9834L9.13477 15.9971L9.05566 16.0244C8.7486 16.1294 8.48057 16.3287 8.29102 16.5938C8.12638 16.8242 8.02714 17.0952 8.00488 17.3779L8 17.5C8 17.8247 8.10136 18.143 8.29102 18.4082C8.48023 18.6726 8.74796 18.8714 9.05566 18.9766L9.13672 19.0039L9.48633 19.0605C10.3352 19.1993 11.1447 19.5191 11.8594 19.998C12.5737 20.4768 13.1768 21.1041 13.6279 21.8369L13.7305 22.0146C14.2127 22.9156 14.2998 24.043 14.2998 25.3584V31.5H2V3.5H20Z" fill="#F2F1ED"/>
<path d="M61.152 28H55.86L52.752 19.768H48.692V28H43.68V6.636H53.76C55.8507 6.636 57.4933 7.15867 58.688 8.204C59.9013 9.23067 60.508 10.8547 60.508 13.076C60.508 14.4013 60.2373 15.5587 59.696 16.548C59.1547 17.5373 58.408 18.3027 57.456 18.844L61.152 28ZM48.692 11.116V15.428H53.06C54.7213 15.428 55.552 14.7 55.552 13.244C55.552 12.5533 55.3373 12.0307 54.908 11.676C54.4973 11.3027 53.8813 11.116 53.06 11.116H48.692ZM68.0682 28H63.3642V12.124H68.0682V28ZM65.7162 11.032C64.9696 11.032 64.3349 10.8173 63.8122 10.388C63.3082 9.94 63.0562 9.352 63.0562 8.624C63.0562 7.896 63.3082 7.308 63.8122 6.86C64.3349 6.412 64.9696 6.188 65.7162 6.188C66.4629 6.188 67.0882 6.412 67.5922 6.86C68.1149 7.308 68.3762 7.896 68.3762 8.624C68.3762 9.352 68.1149 9.94 67.5922 10.388C67.0882 10.8173 66.4629 11.032 65.7162 11.032ZM79.3612 28H75.6372L69.7852 12.124H74.7692L77.4572 21.028L80.2572 12.124H85.2412L79.3612 28ZM91.0343 28.336C89.5223 28.336 88.2717 27.9253 87.2823 27.104C86.3117 26.264 85.8263 25.0787 85.8263 23.548C85.8263 21.868 86.489 20.5893 87.8143 19.712C88.3183 19.3947 88.869 19.1427 89.4663 18.956C90.0823 18.7693 90.7823 18.6013 91.5663 18.452L95.6823 17.724C95.6263 16.9213 95.4117 16.3053 95.0383 15.876C94.6837 15.5027 94.1517 15.316 93.4423 15.316C92.8823 15.316 92.3783 15.5027 91.9303 15.876C91.4823 16.2493 91.2023 16.7627 91.0903 17.416H86.4143C86.601 16.1467 87.0397 15.092 87.7303 14.252C88.4397 13.412 89.289 12.796 90.2783 12.404C91.2863 11.9933 92.3503 11.788 93.4703 11.788C94.441 11.788 95.3463 11.9187 96.1863 12.18C97.045 12.4413 97.7823 12.8333 98.3983 13.356C99.0143 13.8787 99.4623 14.4947 99.7423 15.204C100.022 15.9133 100.19 16.6507 100.246 17.416C100.321 18.1813 100.358 19.1987 100.358 20.468V28H95.6543V26.068C95.393 26.684 95.0197 27.16 94.5343 27.496C93.7317 28.056 92.565 28.336 91.0343 28.336ZM92.4063 24.78C92.9663 24.78 93.5357 24.6493 94.1143 24.388C94.7303 24.108 95.1503 23.716 95.3743 23.212C95.5983 22.708 95.729 21.9893 95.7663 21.056L92.8823 21.616C92.3597 21.7093 91.949 21.812 91.6503 21.924C91.3703 22.036 91.137 22.1853 90.9503 22.372C90.6703 22.652 90.5303 22.988 90.5303 23.38C90.5303 23.8467 90.7077 24.2013 91.0623 24.444C91.417 24.668 91.865 24.78 92.4063 24.78ZM103.259 28V12.124H107.963V13.832C108.467 13.0667 109.045 12.5347 109.699 12.236C110.352 11.9373 111.127 11.788 112.023 11.788C114.636 11.788 116.344 12.7027 117.147 14.532C117.427 15.148 117.595 15.7733 117.651 16.408C117.725 17.024 117.763 17.9293 117.763 19.124V28H113.059V19.068C113.059 18.284 113.003 17.668 112.891 17.22C112.797 16.772 112.629 16.4173 112.387 16.156C112.013 15.764 111.435 15.568 110.651 15.568C109.643 15.568 108.943 15.8387 108.551 16.38C108.159 16.9027 107.963 17.7987 107.963 19.068V28H103.259ZM128.375 28.336C126.733 28.336 125.277 27.9907 124.007 27.3C122.757 26.5907 121.786 25.62 121.095 24.388C120.423 23.156 120.087 21.756 120.087 20.188C120.087 18.7693 120.377 17.4253 120.955 16.156C121.553 14.868 122.458 13.8227 123.671 13.02C124.903 12.1987 126.425 11.788 128.235 11.788C129.71 11.788 131.063 12.0773 132.295 12.656C133.546 13.2347 134.545 14.1587 135.291 15.428C136.057 16.6973 136.439 18.3027 136.439 20.244V21.056H125.015C125.071 21.448 125.174 21.8307 125.323 22.204C125.473 22.5587 125.641 22.8573 125.827 23.1C126.462 23.9027 127.395 24.304 128.627 24.304C129.318 24.304 129.906 24.136 130.391 23.8C130.895 23.464 131.25 23.0347 131.455 22.512H136.187C135.702 24.2293 134.806 25.6293 133.499 26.712C132.193 27.7947 130.485 28.336 128.375 28.336ZM131.679 17.724C131.549 17.1453 131.297 16.6693 130.923 16.296C130.307 15.68 129.467 15.372 128.403 15.372C127.339 15.372 126.499 15.68 125.883 16.296C125.491 16.688 125.249 17.164 125.155 17.724H131.679Z" fill="#F2F1ED"/>
</svg>
